<mxfile host="app.diagrams.net" modified="2023-09-18T16:42:12.819Z" agent="Mozilla/5.0 (Windows NT 10.0; Win64; x64) AppleWebKit/537.36 (KHTML, like Gecko) Chrome/117.0.0.0 Safari/537.36 Edg/117.0.2045.31" etag="HjlaF_TzCQ67a0wuBrJf" version="21.3.2" type="device">
  <diagram name="Page-1" id="9dBo_BM4pKoXhT9gTbiN">
    <mxGraphModel dx="2103" dy="711" grid="1" gridSize="10" guides="1" tooltips="1" connect="1" arrows="1" fold="1" page="1" pageScale="1" pageWidth="850" pageHeight="1100" math="0" shadow="0">
      <root>
        <mxCell id="0" />
        <mxCell id="1" parent="0" />
        <mxCell id="XYNEk0ohPdbuaJLvtM9J-1" value="LECTURE" style="rounded=0;whiteSpace=wrap;html=1;" vertex="1" parent="1">
          <mxGeometry x="120" y="500" width="120" height="60" as="geometry" />
        </mxCell>
        <mxCell id="XYNEk0ohPdbuaJLvtM9J-2" value="DEPARTMENT" style="rounded=0;whiteSpace=wrap;html=1;" vertex="1" parent="1">
          <mxGeometry x="120" y="270" width="120" height="60" as="geometry" />
        </mxCell>
        <mxCell id="XYNEk0ohPdbuaJLvtM9J-3" value="STUDENT" style="rounded=0;whiteSpace=wrap;html=1;" vertex="1" parent="1">
          <mxGeometry x="110" y="740" width="120" height="60" as="geometry" />
        </mxCell>
        <mxCell id="XYNEk0ohPdbuaJLvtM9J-4" value="ATTENDENCE" style="rounded=0;whiteSpace=wrap;html=1;" vertex="1" parent="1">
          <mxGeometry x="650" y="890" width="120" height="60" as="geometry" />
        </mxCell>
        <mxCell id="XYNEk0ohPdbuaJLvtM9J-5" value="EXAM_MARKS" style="rounded=0;whiteSpace=wrap;html=1;" vertex="1" parent="1">
          <mxGeometry x="640" y="610" width="120" height="60" as="geometry" />
        </mxCell>
        <mxCell id="XYNEk0ohPdbuaJLvtM9J-6" value="COURSE_UNIT" style="rounded=0;whiteSpace=wrap;html=1;" vertex="1" parent="1">
          <mxGeometry x="630" y="370" width="120" height="60" as="geometry" />
        </mxCell>
        <mxCell id="XYNEk0ohPdbuaJLvtM9J-7" value="&lt;font style=&quot;font-size: 11px;&quot;&gt;TECHNICAL_OFFICER&lt;/font&gt;" style="rounded=0;whiteSpace=wrap;html=1;" vertex="1" parent="1">
          <mxGeometry x="820" y="130" width="120" height="60" as="geometry" />
        </mxCell>
        <mxCell id="XYNEk0ohPdbuaJLvtM9J-8" value="DEAN" style="rounded=0;whiteSpace=wrap;html=1;" vertex="1" parent="1">
          <mxGeometry x="250" y="90" width="120" height="60" as="geometry" />
        </mxCell>
        <mxCell id="XYNEk0ohPdbuaJLvtM9J-11" value="Dean_mail" style="ellipse;whiteSpace=wrap;html=1;" vertex="1" parent="1">
          <mxGeometry x="320" y="30" width="90" height="50" as="geometry" />
        </mxCell>
        <mxCell id="XYNEk0ohPdbuaJLvtM9J-12" value="Dean_name" style="ellipse;whiteSpace=wrap;html=1;" vertex="1" parent="1">
          <mxGeometry x="230" y="10" width="90" height="50" as="geometry" />
        </mxCell>
        <mxCell id="XYNEk0ohPdbuaJLvtM9J-13" value="Gender" style="ellipse;whiteSpace=wrap;html=1;" vertex="1" parent="1">
          <mxGeometry x="390" y="70" width="90" height="50" as="geometry" />
        </mxCell>
        <mxCell id="XYNEk0ohPdbuaJLvtM9J-14" value="Dean_id" style="ellipse;whiteSpace=wrap;html=1;" vertex="1" parent="1">
          <mxGeometry x="150" y="40" width="90" height="50" as="geometry" />
        </mxCell>
        <mxCell id="XYNEk0ohPdbuaJLvtM9J-15" value="Salary" style="ellipse;whiteSpace=wrap;html=1;" vertex="1" parent="1">
          <mxGeometry x="140" y="100" width="90" height="50" as="geometry" />
        </mxCell>
        <mxCell id="XYNEk0ohPdbuaJLvtM9J-23" value="D_id" style="ellipse;whiteSpace=wrap;html=1;" vertex="1" parent="1">
          <mxGeometry x="10" y="250" width="90" height="50" as="geometry" />
        </mxCell>
        <mxCell id="XYNEk0ohPdbuaJLvtM9J-24" value="D_name" style="ellipse;whiteSpace=wrap;html=1;" vertex="1" parent="1">
          <mxGeometry x="10" y="310" width="90" height="50" as="geometry" />
        </mxCell>
        <mxCell id="XYNEk0ohPdbuaJLvtM9J-26" value="Location" style="ellipse;shape=doubleEllipse;whiteSpace=wrap;html=1;" vertex="1" parent="1">
          <mxGeometry x="260" y="250" width="100" height="50" as="geometry" />
        </mxCell>
        <mxCell id="XYNEk0ohPdbuaJLvtM9J-31" value="Salary" style="ellipse;whiteSpace=wrap;html=1;" vertex="1" parent="1">
          <mxGeometry x="260" y="480" width="90" height="50" as="geometry" />
        </mxCell>
        <mxCell id="XYNEk0ohPdbuaJLvtM9J-32" value="L_id" style="ellipse;whiteSpace=wrap;html=1;" vertex="1" parent="1">
          <mxGeometry x="10" y="480" width="90" height="50" as="geometry" />
        </mxCell>
        <mxCell id="XYNEk0ohPdbuaJLvtM9J-33" value="Email" style="ellipse;whiteSpace=wrap;html=1;" vertex="1" parent="1">
          <mxGeometry x="200" y="570" width="90" height="50" as="geometry" />
        </mxCell>
        <mxCell id="XYNEk0ohPdbuaJLvtM9J-34" value="L_name" style="ellipse;whiteSpace=wrap;html=1;" vertex="1" parent="1">
          <mxGeometry x="10" y="550" width="90" height="50" as="geometry" />
        </mxCell>
        <mxCell id="XYNEk0ohPdbuaJLvtM9J-39" value="S_name" style="ellipse;whiteSpace=wrap;html=1;" vertex="1" parent="1">
          <mxGeometry x="20" y="810" width="110" height="50" as="geometry" />
        </mxCell>
        <mxCell id="XYNEk0ohPdbuaJLvtM9J-42" value="Address" style="ellipse;whiteSpace=wrap;html=1;" vertex="1" parent="1">
          <mxGeometry x="160" y="820" width="110" height="50" as="geometry" />
        </mxCell>
        <mxCell id="XYNEk0ohPdbuaJLvtM9J-43" value="S_id" style="ellipse;whiteSpace=wrap;html=1;" vertex="1" parent="1">
          <mxGeometry x="-20" y="740" width="110" height="50" as="geometry" />
        </mxCell>
        <mxCell id="XYNEk0ohPdbuaJLvtM9J-44" value="DOB" style="ellipse;whiteSpace=wrap;html=1;" vertex="1" parent="1">
          <mxGeometry x="240" y="700" width="110" height="50" as="geometry" />
        </mxCell>
        <mxCell id="XYNEk0ohPdbuaJLvtM9J-45" value="Gender" style="ellipse;whiteSpace=wrap;html=1;" vertex="1" parent="1">
          <mxGeometry x="240" y="760" width="110" height="50" as="geometry" />
        </mxCell>
        <mxCell id="XYNEk0ohPdbuaJLvtM9J-52" value="L_name" style="ellipse;whiteSpace=wrap;html=1;" vertex="1" parent="1">
          <mxGeometry x="70" y="880" width="110" height="50" as="geometry" />
        </mxCell>
        <mxCell id="XYNEk0ohPdbuaJLvtM9J-53" value="F_name" style="ellipse;whiteSpace=wrap;html=1;" vertex="1" parent="1">
          <mxGeometry x="-50" y="870" width="110" height="50" as="geometry" />
        </mxCell>
        <mxCell id="XYNEk0ohPdbuaJLvtM9J-57" value="To_id" style="ellipse;whiteSpace=wrap;html=1;" vertex="1" parent="1">
          <mxGeometry x="710" y="20" width="110" height="50" as="geometry" />
        </mxCell>
        <mxCell id="XYNEk0ohPdbuaJLvtM9J-58" value="To_name" style="ellipse;whiteSpace=wrap;html=1;" vertex="1" parent="1">
          <mxGeometry x="850" y="20" width="110" height="50" as="geometry" />
        </mxCell>
        <mxCell id="XYNEk0ohPdbuaJLvtM9J-59" value="To_email" style="ellipse;whiteSpace=wrap;html=1;" vertex="1" parent="1">
          <mxGeometry x="960" y="80" width="110" height="50" as="geometry" />
        </mxCell>
        <mxCell id="XYNEk0ohPdbuaJLvtM9J-63" value="C_code" style="ellipse;whiteSpace=wrap;html=1;" vertex="1" parent="1">
          <mxGeometry x="510" y="360" width="110" height="50" as="geometry" />
        </mxCell>
        <mxCell id="XYNEk0ohPdbuaJLvtM9J-64" value="C_name" style="ellipse;whiteSpace=wrap;html=1;" vertex="1" parent="1">
          <mxGeometry x="620" y="310" width="110" height="50" as="geometry" />
        </mxCell>
        <mxCell id="XYNEk0ohPdbuaJLvtM9J-65" value="Credits" style="ellipse;whiteSpace=wrap;html=1;" vertex="1" parent="1">
          <mxGeometry x="740" y="320" width="110" height="50" as="geometry" />
        </mxCell>
        <mxCell id="XYNEk0ohPdbuaJLvtM9J-66" value="Course_type" style="ellipse;whiteSpace=wrap;html=1;" vertex="1" parent="1">
          <mxGeometry x="760" y="390" width="110" height="50" as="geometry" />
        </mxCell>
        <mxCell id="XYNEk0ohPdbuaJLvtM9J-67" value="Exam_name" style="ellipse;whiteSpace=wrap;html=1;" vertex="1" parent="1">
          <mxGeometry x="540" y="560" width="110" height="50" as="geometry" />
        </mxCell>
        <mxCell id="XYNEk0ohPdbuaJLvtM9J-68" value="Mid" style="ellipse;whiteSpace=wrap;html=1;" vertex="1" parent="1">
          <mxGeometry x="700" y="550" width="110" height="50" as="geometry" />
        </mxCell>
        <mxCell id="XYNEk0ohPdbuaJLvtM9J-69" value="Final" style="ellipse;whiteSpace=wrap;html=1;" vertex="1" parent="1">
          <mxGeometry x="780" y="615" width="110" height="50" as="geometry" />
        </mxCell>
        <mxCell id="XYNEk0ohPdbuaJLvtM9J-71" value="Quiz" style="ellipse;shape=doubleEllipse;whiteSpace=wrap;html=1;" vertex="1" parent="1">
          <mxGeometry x="540" y="670" width="100" height="50" as="geometry" />
        </mxCell>
        <mxCell id="XYNEk0ohPdbuaJLvtM9J-72" value="S_id" style="ellipse;whiteSpace=wrap;html=1;" vertex="1" parent="1">
          <mxGeometry x="580" y="820" width="110" height="50" as="geometry" />
        </mxCell>
        <mxCell id="XYNEk0ohPdbuaJLvtM9J-73" value="C_id" style="ellipse;whiteSpace=wrap;html=1;" vertex="1" parent="1">
          <mxGeometry x="720" y="820" width="110" height="50" as="geometry" />
        </mxCell>
        <mxCell id="XYNEk0ohPdbuaJLvtM9J-74" value="Medical" style="ellipse;whiteSpace=wrap;html=1;" vertex="1" parent="1">
          <mxGeometry x="790" y="895" width="110" height="50" as="geometry" />
        </mxCell>
        <mxCell id="XYNEk0ohPdbuaJLvtM9J-90" value="" style="endArrow=none;html=1;rounded=0;exitX=1;exitY=0.5;exitDx=0;exitDy=0;" edge="1" parent="1" source="XYNEk0ohPdbuaJLvtM9J-15">
          <mxGeometry width="50" height="50" relative="1" as="geometry">
            <mxPoint x="200" y="170" as="sourcePoint" />
            <mxPoint x="250" y="120" as="targetPoint" />
          </mxGeometry>
        </mxCell>
        <mxCell id="XYNEk0ohPdbuaJLvtM9J-91" value="" style="endArrow=none;html=1;rounded=0;exitX=0;exitY=0.25;exitDx=0;exitDy=0;" edge="1" parent="1" source="XYNEk0ohPdbuaJLvtM9J-8">
          <mxGeometry width="50" height="50" relative="1" as="geometry">
            <mxPoint x="180" y="130" as="sourcePoint" />
            <mxPoint x="230" y="80" as="targetPoint" />
          </mxGeometry>
        </mxCell>
        <mxCell id="XYNEk0ohPdbuaJLvtM9J-92" value="" style="endArrow=none;html=1;rounded=0;exitX=0.19;exitY=-0.033;exitDx=0;exitDy=0;exitPerimeter=0;" edge="1" parent="1" source="XYNEk0ohPdbuaJLvtM9J-8">
          <mxGeometry width="50" height="50" relative="1" as="geometry">
            <mxPoint x="230" y="110" as="sourcePoint" />
            <mxPoint x="280" y="60" as="targetPoint" />
          </mxGeometry>
        </mxCell>
        <mxCell id="XYNEk0ohPdbuaJLvtM9J-93" value="" style="endArrow=none;html=1;rounded=0;exitX=0.663;exitY=-0.047;exitDx=0;exitDy=0;exitPerimeter=0;" edge="1" parent="1" source="XYNEk0ohPdbuaJLvtM9J-8">
          <mxGeometry width="50" height="50" relative="1" as="geometry">
            <mxPoint x="280" y="120" as="sourcePoint" />
            <mxPoint x="330" y="70" as="targetPoint" />
          </mxGeometry>
        </mxCell>
        <mxCell id="XYNEk0ohPdbuaJLvtM9J-94" value="" style="endArrow=none;html=1;rounded=0;exitX=1;exitY=0.5;exitDx=0;exitDy=0;" edge="1" parent="1" source="XYNEk0ohPdbuaJLvtM9J-8">
          <mxGeometry width="50" height="50" relative="1" as="geometry">
            <mxPoint x="340" y="150" as="sourcePoint" />
            <mxPoint x="390" y="100" as="targetPoint" />
          </mxGeometry>
        </mxCell>
        <mxCell id="XYNEk0ohPdbuaJLvtM9J-95" value="" style="endArrow=none;html=1;rounded=0;exitX=1;exitY=0.5;exitDx=0;exitDy=0;entryX=0;entryY=0.25;entryDx=0;entryDy=0;" edge="1" parent="1" source="XYNEk0ohPdbuaJLvtM9J-23" target="XYNEk0ohPdbuaJLvtM9J-2">
          <mxGeometry width="50" height="50" relative="1" as="geometry">
            <mxPoint x="400" y="200" as="sourcePoint" />
            <mxPoint x="450" y="150" as="targetPoint" />
          </mxGeometry>
        </mxCell>
        <mxCell id="XYNEk0ohPdbuaJLvtM9J-96" value="" style="endArrow=none;html=1;rounded=0;entryX=0;entryY=1;entryDx=0;entryDy=0;exitX=1;exitY=0.5;exitDx=0;exitDy=0;" edge="1" parent="1" source="XYNEk0ohPdbuaJLvtM9J-24" target="XYNEk0ohPdbuaJLvtM9J-2">
          <mxGeometry width="50" height="50" relative="1" as="geometry">
            <mxPoint x="110" y="350" as="sourcePoint" />
            <mxPoint x="160" y="300" as="targetPoint" />
          </mxGeometry>
        </mxCell>
        <mxCell id="XYNEk0ohPdbuaJLvtM9J-97" value="" style="endArrow=none;html=1;rounded=0;exitX=0.04;exitY=0.736;exitDx=0;exitDy=0;exitPerimeter=0;entryX=1;entryY=0.5;entryDx=0;entryDy=0;" edge="1" parent="1" source="XYNEk0ohPdbuaJLvtM9J-26" target="XYNEk0ohPdbuaJLvtM9J-2">
          <mxGeometry width="50" height="50" relative="1" as="geometry">
            <mxPoint x="400" y="200" as="sourcePoint" />
            <mxPoint x="450" y="150" as="targetPoint" />
          </mxGeometry>
        </mxCell>
        <mxCell id="XYNEk0ohPdbuaJLvtM9J-98" value="" style="endArrow=none;html=1;rounded=0;entryX=0;entryY=0.25;entryDx=0;entryDy=0;" edge="1" parent="1" target="XYNEk0ohPdbuaJLvtM9J-1">
          <mxGeometry width="50" height="50" relative="1" as="geometry">
            <mxPoint x="100" y="510" as="sourcePoint" />
            <mxPoint x="150" y="460" as="targetPoint" />
          </mxGeometry>
        </mxCell>
        <mxCell id="XYNEk0ohPdbuaJLvtM9J-99" value="" style="endArrow=none;html=1;rounded=0;entryX=0.113;entryY=1.033;entryDx=0;entryDy=0;entryPerimeter=0;" edge="1" parent="1" target="XYNEk0ohPdbuaJLvtM9J-1">
          <mxGeometry width="50" height="50" relative="1" as="geometry">
            <mxPoint x="90" y="590" as="sourcePoint" />
            <mxPoint x="140" y="540" as="targetPoint" />
          </mxGeometry>
        </mxCell>
        <mxCell id="XYNEk0ohPdbuaJLvtM9J-103" value="" style="endArrow=none;html=1;rounded=0;entryX=1;entryY=0.25;entryDx=0;entryDy=0;" edge="1" parent="1" target="XYNEk0ohPdbuaJLvtM9J-1">
          <mxGeometry width="50" height="50" relative="1" as="geometry">
            <mxPoint x="260" y="510" as="sourcePoint" />
            <mxPoint x="310" y="460" as="targetPoint" />
          </mxGeometry>
        </mxCell>
        <mxCell id="XYNEk0ohPdbuaJLvtM9J-104" value="" style="endArrow=none;html=1;rounded=0;entryX=0.75;entryY=1;entryDx=0;entryDy=0;" edge="1" parent="1" target="XYNEk0ohPdbuaJLvtM9J-1">
          <mxGeometry width="50" height="50" relative="1" as="geometry">
            <mxPoint x="200" y="590" as="sourcePoint" />
            <mxPoint x="250" y="540" as="targetPoint" />
          </mxGeometry>
        </mxCell>
        <mxCell id="XYNEk0ohPdbuaJLvtM9J-105" value="" style="endArrow=none;html=1;rounded=0;entryX=0;entryY=0.5;entryDx=0;entryDy=0;" edge="1" parent="1" target="XYNEk0ohPdbuaJLvtM9J-3">
          <mxGeometry width="50" height="50" relative="1" as="geometry">
            <mxPoint x="90" y="770" as="sourcePoint" />
            <mxPoint x="140" y="720" as="targetPoint" />
          </mxGeometry>
        </mxCell>
        <mxCell id="XYNEk0ohPdbuaJLvtM9J-106" value="" style="endArrow=none;html=1;rounded=0;entryX=0.163;entryY=0.98;entryDx=0;entryDy=0;entryPerimeter=0;" edge="1" parent="1" target="XYNEk0ohPdbuaJLvtM9J-3">
          <mxGeometry width="50" height="50" relative="1" as="geometry">
            <mxPoint x="110" y="820" as="sourcePoint" />
            <mxPoint x="160" y="770" as="targetPoint" />
          </mxGeometry>
        </mxCell>
        <mxCell id="XYNEk0ohPdbuaJLvtM9J-107" value="" style="endArrow=none;html=1;rounded=0;entryX=0.563;entryY=1.047;entryDx=0;entryDy=0;entryPerimeter=0;" edge="1" parent="1" target="XYNEk0ohPdbuaJLvtM9J-3">
          <mxGeometry width="50" height="50" relative="1" as="geometry">
            <mxPoint x="170" y="830" as="sourcePoint" />
            <mxPoint x="220" y="780" as="targetPoint" />
          </mxGeometry>
        </mxCell>
        <mxCell id="XYNEk0ohPdbuaJLvtM9J-108" value="" style="endArrow=none;html=1;rounded=0;entryX=0.81;entryY=0.007;entryDx=0;entryDy=0;entryPerimeter=0;" edge="1" parent="1" target="XYNEk0ohPdbuaJLvtM9J-3">
          <mxGeometry width="50" height="50" relative="1" as="geometry">
            <mxPoint x="240" y="730" as="sourcePoint" />
            <mxPoint x="290" y="680" as="targetPoint" />
          </mxGeometry>
        </mxCell>
        <mxCell id="XYNEk0ohPdbuaJLvtM9J-109" value="" style="endArrow=none;html=1;rounded=0;entryX=1;entryY=0.5;entryDx=0;entryDy=0;" edge="1" parent="1" target="XYNEk0ohPdbuaJLvtM9J-3">
          <mxGeometry width="50" height="50" relative="1" as="geometry">
            <mxPoint x="250" y="770" as="sourcePoint" />
            <mxPoint x="300" y="720" as="targetPoint" />
          </mxGeometry>
        </mxCell>
        <mxCell id="XYNEk0ohPdbuaJLvtM9J-110" value="" style="endArrow=none;html=1;rounded=0;entryX=0.32;entryY=1.024;entryDx=0;entryDy=0;entryPerimeter=0;" edge="1" parent="1" target="XYNEk0ohPdbuaJLvtM9J-39">
          <mxGeometry width="50" height="50" relative="1" as="geometry">
            <mxPoint x="20" y="870" as="sourcePoint" />
            <mxPoint x="70" y="820" as="targetPoint" />
          </mxGeometry>
        </mxCell>
        <mxCell id="XYNEk0ohPdbuaJLvtM9J-111" value="" style="endArrow=none;html=1;rounded=0;entryX=0.655;entryY=1.008;entryDx=0;entryDy=0;entryPerimeter=0;" edge="1" parent="1" target="XYNEk0ohPdbuaJLvtM9J-39">
          <mxGeometry width="50" height="50" relative="1" as="geometry">
            <mxPoint x="90" y="890" as="sourcePoint" />
            <mxPoint x="140" y="840" as="targetPoint" />
          </mxGeometry>
        </mxCell>
        <mxCell id="XYNEk0ohPdbuaJLvtM9J-113" value="" style="endArrow=none;html=1;rounded=0;entryX=0.25;entryY=0;entryDx=0;entryDy=0;exitX=0.5;exitY=1;exitDx=0;exitDy=0;" edge="1" parent="1" source="XYNEk0ohPdbuaJLvtM9J-57" target="XYNEk0ohPdbuaJLvtM9J-7">
          <mxGeometry width="50" height="50" relative="1" as="geometry">
            <mxPoint x="650" y="140" as="sourcePoint" />
            <mxPoint x="700" y="90" as="targetPoint" />
          </mxGeometry>
        </mxCell>
        <mxCell id="XYNEk0ohPdbuaJLvtM9J-114" value="" style="endArrow=none;html=1;rounded=0;entryX=0.58;entryY=-0.007;entryDx=0;entryDy=0;entryPerimeter=0;exitX=0.418;exitY=1.017;exitDx=0;exitDy=0;exitPerimeter=0;" edge="1" parent="1" source="XYNEk0ohPdbuaJLvtM9J-58" target="XYNEk0ohPdbuaJLvtM9J-7">
          <mxGeometry width="50" height="50" relative="1" as="geometry">
            <mxPoint x="720" y="130" as="sourcePoint" />
            <mxPoint x="780" y="80" as="targetPoint" />
          </mxGeometry>
        </mxCell>
        <mxCell id="XYNEk0ohPdbuaJLvtM9J-115" value="" style="endArrow=none;html=1;rounded=0;entryX=1;entryY=0.5;entryDx=0;entryDy=0;exitX=0;exitY=1;exitDx=0;exitDy=0;" edge="1" parent="1" source="XYNEk0ohPdbuaJLvtM9J-59" target="XYNEk0ohPdbuaJLvtM9J-7">
          <mxGeometry width="50" height="50" relative="1" as="geometry">
            <mxPoint x="780" y="190" as="sourcePoint" />
            <mxPoint x="830" y="140" as="targetPoint" />
          </mxGeometry>
        </mxCell>
        <mxCell id="XYNEk0ohPdbuaJLvtM9J-116" value="" style="endArrow=none;html=1;rounded=0;entryX=0;entryY=0.5;entryDx=0;entryDy=0;" edge="1" parent="1" target="XYNEk0ohPdbuaJLvtM9J-6">
          <mxGeometry width="50" height="50" relative="1" as="geometry">
            <mxPoint x="620" y="390" as="sourcePoint" />
            <mxPoint x="670" y="340" as="targetPoint" />
          </mxGeometry>
        </mxCell>
        <mxCell id="XYNEk0ohPdbuaJLvtM9J-118" value="" style="endArrow=none;html=1;rounded=0;entryX=0.25;entryY=0;entryDx=0;entryDy=0;" edge="1" parent="1" target="XYNEk0ohPdbuaJLvtM9J-6">
          <mxGeometry width="50" height="50" relative="1" as="geometry">
            <mxPoint x="630" y="350" as="sourcePoint" />
            <mxPoint x="680" y="300" as="targetPoint" />
          </mxGeometry>
        </mxCell>
        <mxCell id="XYNEk0ohPdbuaJLvtM9J-119" value="" style="endArrow=none;html=1;rounded=0;entryX=0.863;entryY=0;entryDx=0;entryDy=0;entryPerimeter=0;" edge="1" parent="1" target="XYNEk0ohPdbuaJLvtM9J-6">
          <mxGeometry width="50" height="50" relative="1" as="geometry">
            <mxPoint x="740" y="350" as="sourcePoint" />
            <mxPoint x="790" y="300" as="targetPoint" />
          </mxGeometry>
        </mxCell>
        <mxCell id="XYNEk0ohPdbuaJLvtM9J-120" value="" style="endArrow=none;html=1;rounded=0;entryX=1;entryY=0.5;entryDx=0;entryDy=0;" edge="1" parent="1" target="XYNEk0ohPdbuaJLvtM9J-6">
          <mxGeometry width="50" height="50" relative="1" as="geometry">
            <mxPoint x="770" y="400" as="sourcePoint" />
            <mxPoint x="820" y="350" as="targetPoint" />
          </mxGeometry>
        </mxCell>
        <mxCell id="XYNEk0ohPdbuaJLvtM9J-121" value="" style="endArrow=none;html=1;rounded=0;entryX=0;entryY=0.5;entryDx=0;entryDy=0;" edge="1" parent="1" target="XYNEk0ohPdbuaJLvtM9J-5">
          <mxGeometry width="50" height="50" relative="1" as="geometry">
            <mxPoint x="600" y="670" as="sourcePoint" />
            <mxPoint x="650" y="620" as="targetPoint" />
          </mxGeometry>
        </mxCell>
        <mxCell id="XYNEk0ohPdbuaJLvtM9J-122" value="" style="endArrow=none;html=1;rounded=0;entryX=0.007;entryY=0.133;entryDx=0;entryDy=0;entryPerimeter=0;" edge="1" parent="1" target="XYNEk0ohPdbuaJLvtM9J-5">
          <mxGeometry width="50" height="50" relative="1" as="geometry">
            <mxPoint x="590" y="610" as="sourcePoint" />
            <mxPoint x="640" y="560" as="targetPoint" />
          </mxGeometry>
        </mxCell>
        <mxCell id="XYNEk0ohPdbuaJLvtM9J-123" value="" style="endArrow=none;html=1;rounded=0;entryX=0.5;entryY=0;entryDx=0;entryDy=0;" edge="1" parent="1" target="XYNEk0ohPdbuaJLvtM9J-5">
          <mxGeometry width="50" height="50" relative="1" as="geometry">
            <mxPoint x="710" y="590" as="sourcePoint" />
            <mxPoint x="760" y="540" as="targetPoint" />
          </mxGeometry>
        </mxCell>
        <mxCell id="XYNEk0ohPdbuaJLvtM9J-124" value="" style="endArrow=none;html=1;rounded=0;entryX=1;entryY=0.75;entryDx=0;entryDy=0;" edge="1" parent="1" target="XYNEk0ohPdbuaJLvtM9J-5">
          <mxGeometry width="50" height="50" relative="1" as="geometry">
            <mxPoint x="800" y="660" as="sourcePoint" />
            <mxPoint x="850" y="610" as="targetPoint" />
          </mxGeometry>
        </mxCell>
        <mxCell id="XYNEk0ohPdbuaJLvtM9J-127" value="" style="endArrow=none;html=1;rounded=0;entryX=0;entryY=0;entryDx=0;entryDy=0;" edge="1" parent="1" target="XYNEk0ohPdbuaJLvtM9J-4">
          <mxGeometry width="50" height="50" relative="1" as="geometry">
            <mxPoint x="620" y="870" as="sourcePoint" />
            <mxPoint x="670" y="820" as="targetPoint" />
          </mxGeometry>
        </mxCell>
        <mxCell id="XYNEk0ohPdbuaJLvtM9J-128" value="" style="endArrow=none;html=1;rounded=0;entryX=0.5;entryY=0;entryDx=0;entryDy=0;" edge="1" parent="1" target="XYNEk0ohPdbuaJLvtM9J-4">
          <mxGeometry width="50" height="50" relative="1" as="geometry">
            <mxPoint x="730" y="860" as="sourcePoint" />
            <mxPoint x="780" y="810" as="targetPoint" />
          </mxGeometry>
        </mxCell>
        <mxCell id="XYNEk0ohPdbuaJLvtM9J-129" value="" style="endArrow=none;html=1;rounded=0;entryX=1;entryY=0.75;entryDx=0;entryDy=0;" edge="1" parent="1" target="XYNEk0ohPdbuaJLvtM9J-4">
          <mxGeometry width="50" height="50" relative="1" as="geometry">
            <mxPoint x="810" y="940" as="sourcePoint" />
            <mxPoint x="860" y="890" as="targetPoint" />
          </mxGeometry>
        </mxCell>
        <mxCell id="XYNEk0ohPdbuaJLvtM9J-130" value="CONTROL" style="rhombus;whiteSpace=wrap;html=1;" vertex="1" parent="1">
          <mxGeometry x="25" y="165" width="135" height="80" as="geometry" />
        </mxCell>
        <mxCell id="XYNEk0ohPdbuaJLvtM9J-131" value="" style="endArrow=none;html=1;rounded=0;entryX=0.5;entryY=0;entryDx=0;entryDy=0;" edge="1" parent="1" target="XYNEk0ohPdbuaJLvtM9J-130">
          <mxGeometry width="50" height="50" relative="1" as="geometry">
            <mxPoint x="250" y="150" as="sourcePoint" />
            <mxPoint x="300" y="100" as="targetPoint" />
          </mxGeometry>
        </mxCell>
        <mxCell id="XYNEk0ohPdbuaJLvtM9J-135" value="" style="endArrow=none;html=1;rounded=0;exitX=0.5;exitY=1;exitDx=0;exitDy=0;entryX=0.5;entryY=0;entryDx=0;entryDy=0;" edge="1" parent="1" source="XYNEk0ohPdbuaJLvtM9J-130" target="XYNEk0ohPdbuaJLvtM9J-2">
          <mxGeometry width="50" height="50" relative="1" as="geometry">
            <mxPoint x="430" y="250" as="sourcePoint" />
            <mxPoint x="480" y="200" as="targetPoint" />
          </mxGeometry>
        </mxCell>
        <mxCell id="XYNEk0ohPdbuaJLvtM9J-136" value="WORKS_FOR" style="rhombus;whiteSpace=wrap;html=1;" vertex="1" parent="1">
          <mxGeometry x="210" y="370" width="120" height="80" as="geometry" />
        </mxCell>
        <mxCell id="XYNEk0ohPdbuaJLvtM9J-137" value="" style="endArrow=none;html=1;rounded=0;entryX=0.5;entryY=0;entryDx=0;entryDy=0;" edge="1" parent="1" target="XYNEk0ohPdbuaJLvtM9J-136">
          <mxGeometry width="50" height="50" relative="1" as="geometry">
            <mxPoint x="180" y="330" as="sourcePoint" />
            <mxPoint x="230" y="280" as="targetPoint" />
          </mxGeometry>
        </mxCell>
        <mxCell id="XYNEk0ohPdbuaJLvtM9J-138" value="" style="endArrow=none;html=1;rounded=0;entryX=0.608;entryY=-0.021;entryDx=0;entryDy=0;entryPerimeter=0;" edge="1" parent="1" target="XYNEk0ohPdbuaJLvtM9J-1">
          <mxGeometry width="50" height="50" relative="1" as="geometry">
            <mxPoint x="270" y="450" as="sourcePoint" />
            <mxPoint x="320" y="400" as="targetPoint" />
          </mxGeometry>
        </mxCell>
        <mxCell id="XYNEk0ohPdbuaJLvtM9J-139" value="TEACHES" style="rhombus;whiteSpace=wrap;html=1;" vertex="1" parent="1">
          <mxGeometry x="80" y="615" width="140" height="80" as="geometry" />
        </mxCell>
        <mxCell id="XYNEk0ohPdbuaJLvtM9J-143" value="" style="endArrow=none;html=1;rounded=0;entryX=0.5;entryY=0;entryDx=0;entryDy=0;" edge="1" parent="1" target="XYNEk0ohPdbuaJLvtM9J-139">
          <mxGeometry width="50" height="50" relative="1" as="geometry">
            <mxPoint x="160" y="560" as="sourcePoint" />
            <mxPoint x="210" y="510" as="targetPoint" />
          </mxGeometry>
        </mxCell>
        <mxCell id="XYNEk0ohPdbuaJLvtM9J-144" value="" style="endArrow=none;html=1;rounded=0;" edge="1" parent="1" target="XYNEk0ohPdbuaJLvtM9J-3">
          <mxGeometry width="50" height="50" relative="1" as="geometry">
            <mxPoint x="150" y="700" as="sourcePoint" />
            <mxPoint x="200" y="650" as="targetPoint" />
          </mxGeometry>
        </mxCell>
        <mxCell id="XYNEk0ohPdbuaJLvtM9J-145" value="HAS" style="rhombus;whiteSpace=wrap;html=1;" vertex="1" parent="1">
          <mxGeometry x="370" y="855" width="130" height="80" as="geometry" />
        </mxCell>
        <mxCell id="XYNEk0ohPdbuaJLvtM9J-146" value="" style="endArrow=none;html=1;rounded=0;entryX=0;entryY=0.5;entryDx=0;entryDy=0;" edge="1" parent="1" target="XYNEk0ohPdbuaJLvtM9J-145">
          <mxGeometry width="50" height="50" relative="1" as="geometry">
            <mxPoint x="230" y="800" as="sourcePoint" />
            <mxPoint x="360" y="890" as="targetPoint" />
          </mxGeometry>
        </mxCell>
        <mxCell id="XYNEk0ohPdbuaJLvtM9J-147" value="" style="endArrow=none;html=1;rounded=0;entryX=0;entryY=0.25;entryDx=0;entryDy=0;exitX=1;exitY=0.5;exitDx=0;exitDy=0;" edge="1" parent="1" source="XYNEk0ohPdbuaJLvtM9J-145" target="XYNEk0ohPdbuaJLvtM9J-4">
          <mxGeometry width="50" height="50" relative="1" as="geometry">
            <mxPoint x="500" y="900" as="sourcePoint" />
            <mxPoint x="550" y="850" as="targetPoint" />
          </mxGeometry>
        </mxCell>
        <mxCell id="XYNEk0ohPdbuaJLvtM9J-149" value="CONTROL" style="rhombus;whiteSpace=wrap;html=1;" vertex="1" parent="1">
          <mxGeometry x="1000" y="655" width="140" height="80" as="geometry" />
        </mxCell>
        <mxCell id="XYNEk0ohPdbuaJLvtM9J-150" value="" style="endArrow=none;html=1;rounded=0;entryX=0.5;entryY=1;entryDx=0;entryDy=0;exitX=1;exitY=0;exitDx=0;exitDy=0;" edge="1" parent="1" source="XYNEk0ohPdbuaJLvtM9J-4" target="XYNEk0ohPdbuaJLvtM9J-149">
          <mxGeometry width="50" height="50" relative="1" as="geometry">
            <mxPoint x="780" y="890" as="sourcePoint" />
            <mxPoint x="830" y="840" as="targetPoint" />
          </mxGeometry>
        </mxCell>
        <mxCell id="XYNEk0ohPdbuaJLvtM9J-151" value="" style="endArrow=none;html=1;rounded=0;entryX=0.75;entryY=1;entryDx=0;entryDy=0;exitX=0.5;exitY=0;exitDx=0;exitDy=0;" edge="1" parent="1" source="XYNEk0ohPdbuaJLvtM9J-149" target="XYNEk0ohPdbuaJLvtM9J-7">
          <mxGeometry width="50" height="50" relative="1" as="geometry">
            <mxPoint x="1060" y="660" as="sourcePoint" />
            <mxPoint x="1110" y="610" as="targetPoint" />
          </mxGeometry>
        </mxCell>
        <mxCell id="XYNEk0ohPdbuaJLvtM9J-152" value="HAS" style="rhombus;whiteSpace=wrap;html=1;" vertex="1" parent="1">
          <mxGeometry x="840" y="470" width="140" height="80" as="geometry" />
        </mxCell>
        <mxCell id="XYNEk0ohPdbuaJLvtM9J-153" value="" style="endArrow=none;html=1;rounded=0;entryX=0.75;entryY=1;entryDx=0;entryDy=0;" edge="1" parent="1" target="XYNEk0ohPdbuaJLvtM9J-6">
          <mxGeometry width="50" height="50" relative="1" as="geometry">
            <mxPoint x="840" y="510" as="sourcePoint" />
            <mxPoint x="890" y="460" as="targetPoint" />
          </mxGeometry>
        </mxCell>
        <mxCell id="XYNEk0ohPdbuaJLvtM9J-154" value="" style="endArrow=none;html=1;rounded=0;entryX=0.5;entryY=1;entryDx=0;entryDy=0;" edge="1" parent="1" target="XYNEk0ohPdbuaJLvtM9J-152">
          <mxGeometry width="50" height="50" relative="1" as="geometry">
            <mxPoint x="760" y="630" as="sourcePoint" />
            <mxPoint x="810" y="580" as="targetPoint" />
          </mxGeometry>
        </mxCell>
        <mxCell id="XYNEk0ohPdbuaJLvtM9J-155" value="BELONG" style="rhombus;whiteSpace=wrap;html=1;" vertex="1" parent="1">
          <mxGeometry x="-130" y="500" width="140" height="80" as="geometry" />
        </mxCell>
        <mxCell id="XYNEk0ohPdbuaJLvtM9J-156" value="" style="endArrow=none;html=1;rounded=0;entryX=0.5;entryY=1;entryDx=0;entryDy=0;exitX=0.25;exitY=0;exitDx=0;exitDy=0;" edge="1" parent="1" source="XYNEk0ohPdbuaJLvtM9J-3" target="XYNEk0ohPdbuaJLvtM9J-155">
          <mxGeometry width="50" height="50" relative="1" as="geometry">
            <mxPoint x="190" y="740" as="sourcePoint" />
            <mxPoint x="240" y="690" as="targetPoint" />
            <Array as="points" />
          </mxGeometry>
        </mxCell>
        <mxCell id="XYNEk0ohPdbuaJLvtM9J-157" value="" style="endArrow=none;html=1;rounded=0;entryX=0.25;entryY=1;entryDx=0;entryDy=0;exitX=0.5;exitY=0;exitDx=0;exitDy=0;" edge="1" parent="1" source="XYNEk0ohPdbuaJLvtM9J-155" target="XYNEk0ohPdbuaJLvtM9J-2">
          <mxGeometry width="50" height="50" relative="1" as="geometry">
            <mxPoint x="430" y="510" as="sourcePoint" />
            <mxPoint x="480" y="460" as="targetPoint" />
            <Array as="points">
              <mxPoint x="110" y="370" />
            </Array>
          </mxGeometry>
        </mxCell>
        <mxCell id="XYNEk0ohPdbuaJLvtM9J-158" value="ADMIN" style="rounded=0;whiteSpace=wrap;html=1;" vertex="1" parent="1">
          <mxGeometry x="470" y="280" width="120" height="60" as="geometry" />
        </mxCell>
        <mxCell id="XYNEk0ohPdbuaJLvtM9J-159" value="A_name" style="ellipse;whiteSpace=wrap;html=1;" vertex="1" parent="1">
          <mxGeometry x="480" y="210" width="110" height="50" as="geometry" />
        </mxCell>
        <mxCell id="XYNEk0ohPdbuaJLvtM9J-160" value="A_email" style="ellipse;whiteSpace=wrap;html=1;" vertex="1" parent="1">
          <mxGeometry x="620" y="220" width="110" height="50" as="geometry" />
        </mxCell>
        <mxCell id="XYNEk0ohPdbuaJLvtM9J-161" value="A_id" style="ellipse;whiteSpace=wrap;html=1;" vertex="1" parent="1">
          <mxGeometry x="380" y="350" width="110" height="50" as="geometry" />
        </mxCell>
        <mxCell id="XYNEk0ohPdbuaJLvtM9J-162" value="" style="endArrow=none;html=1;rounded=0;entryX=0;entryY=0.75;entryDx=0;entryDy=0;" edge="1" parent="1" target="XYNEk0ohPdbuaJLvtM9J-158">
          <mxGeometry width="50" height="50" relative="1" as="geometry">
            <mxPoint x="450" y="350" as="sourcePoint" />
            <mxPoint x="500" y="300" as="targetPoint" />
          </mxGeometry>
        </mxCell>
        <mxCell id="XYNEk0ohPdbuaJLvtM9J-163" value="" style="endArrow=none;html=1;rounded=0;entryX=0.5;entryY=0;entryDx=0;entryDy=0;" edge="1" parent="1" target="XYNEk0ohPdbuaJLvtM9J-158">
          <mxGeometry width="50" height="50" relative="1" as="geometry">
            <mxPoint x="520" y="260" as="sourcePoint" />
            <mxPoint x="570" y="210" as="targetPoint" />
          </mxGeometry>
        </mxCell>
        <mxCell id="XYNEk0ohPdbuaJLvtM9J-164" value="" style="endArrow=none;html=1;rounded=0;entryX=1;entryY=0;entryDx=0;entryDy=0;" edge="1" parent="1" target="XYNEk0ohPdbuaJLvtM9J-158">
          <mxGeometry width="50" height="50" relative="1" as="geometry">
            <mxPoint x="630" y="260" as="sourcePoint" />
            <mxPoint x="680" y="210" as="targetPoint" />
          </mxGeometry>
        </mxCell>
        <mxCell id="XYNEk0ohPdbuaJLvtM9J-165" value="CONTROL" style="rhombus;whiteSpace=wrap;html=1;" vertex="1" parent="1">
          <mxGeometry x="230" y="160" width="130" height="80" as="geometry" />
        </mxCell>
        <mxCell id="XYNEk0ohPdbuaJLvtM9J-166" value="" style="endArrow=none;html=1;rounded=0;entryX=0;entryY=0;entryDx=0;entryDy=0;" edge="1" parent="1" target="XYNEk0ohPdbuaJLvtM9J-158">
          <mxGeometry width="50" height="50" relative="1" as="geometry">
            <mxPoint x="360" y="200" as="sourcePoint" />
            <mxPoint x="410" y="150" as="targetPoint" />
          </mxGeometry>
        </mxCell>
        <mxCell id="XYNEk0ohPdbuaJLvtM9J-167" value="" style="endArrow=none;html=1;rounded=0;entryX=0.75;entryY=0;entryDx=0;entryDy=0;" edge="1" parent="1" target="XYNEk0ohPdbuaJLvtM9J-2">
          <mxGeometry width="50" height="50" relative="1" as="geometry">
            <mxPoint x="230" y="200" as="sourcePoint" />
            <mxPoint x="280" y="150" as="targetPoint" />
          </mxGeometry>
        </mxCell>
        <mxCell id="XYNEk0ohPdbuaJLvtM9J-168" value="HAS" style="rhombus;whiteSpace=wrap;html=1;" vertex="1" parent="1">
          <mxGeometry x="440" y="480" width="120" height="80" as="geometry" />
        </mxCell>
        <mxCell id="XYNEk0ohPdbuaJLvtM9J-169" value="" style="endArrow=none;html=1;rounded=0;entryX=0;entryY=0.5;entryDx=0;entryDy=0;" edge="1" parent="1" target="XYNEk0ohPdbuaJLvtM9J-168">
          <mxGeometry width="50" height="50" relative="1" as="geometry">
            <mxPoint x="240" y="550" as="sourcePoint" />
            <mxPoint x="290" y="500" as="targetPoint" />
          </mxGeometry>
        </mxCell>
        <mxCell id="XYNEk0ohPdbuaJLvtM9J-170" value="" style="endArrow=none;html=1;rounded=0;entryX=0.25;entryY=1;entryDx=0;entryDy=0;" edge="1" parent="1" target="XYNEk0ohPdbuaJLvtM9J-6">
          <mxGeometry width="50" height="50" relative="1" as="geometry">
            <mxPoint x="560" y="520" as="sourcePoint" />
            <mxPoint x="610" y="470" as="targetPoint" />
          </mxGeometry>
        </mxCell>
        <mxCell id="XYNEk0ohPdbuaJLvtM9J-172" value="1" style="text;html=1;strokeColor=none;fillColor=none;align=center;verticalAlign=middle;whiteSpace=wrap;rounded=0;" vertex="1" parent="1">
          <mxGeometry x="80" y="135" width="60" height="30" as="geometry" />
        </mxCell>
        <mxCell id="XYNEk0ohPdbuaJLvtM9J-173" value="N" style="text;html=1;strokeColor=none;fillColor=none;align=center;verticalAlign=middle;whiteSpace=wrap;rounded=0;" vertex="1" parent="1">
          <mxGeometry x="100" y="230" width="60" height="30" as="geometry" />
        </mxCell>
        <mxCell id="XYNEk0ohPdbuaJLvtM9J-174" value="1" style="text;html=1;strokeColor=none;fillColor=none;align=center;verticalAlign=middle;whiteSpace=wrap;rounded=0;" vertex="1" parent="1">
          <mxGeometry x="240" y="340" width="60" height="30" as="geometry" />
        </mxCell>
        <mxCell id="XYNEk0ohPdbuaJLvtM9J-175" value="N" style="text;html=1;strokeColor=none;fillColor=none;align=center;verticalAlign=middle;whiteSpace=wrap;rounded=0;" vertex="1" parent="1">
          <mxGeometry x="200" y="440" width="60" height="30" as="geometry" />
        </mxCell>
        <mxCell id="XYNEk0ohPdbuaJLvtM9J-176" value="M" style="text;html=1;strokeColor=none;fillColor=none;align=center;verticalAlign=middle;whiteSpace=wrap;rounded=0;" vertex="1" parent="1">
          <mxGeometry x="100" y="590" width="60" height="30" as="geometry" />
        </mxCell>
        <mxCell id="XYNEk0ohPdbuaJLvtM9J-177" value="N" style="text;html=1;strokeColor=none;fillColor=none;align=center;verticalAlign=middle;whiteSpace=wrap;rounded=0;" vertex="1" parent="1">
          <mxGeometry x="140" y="690" width="60" height="30" as="geometry" />
        </mxCell>
        <mxCell id="XYNEk0ohPdbuaJLvtM9J-178" value="1" style="text;html=1;strokeColor=none;fillColor=none;align=center;verticalAlign=middle;whiteSpace=wrap;rounded=0;" vertex="1" parent="1">
          <mxGeometry x="350" y="860" width="60" height="30" as="geometry" />
        </mxCell>
        <mxCell id="XYNEk0ohPdbuaJLvtM9J-179" value="N" style="text;html=1;strokeColor=none;fillColor=none;align=center;verticalAlign=middle;whiteSpace=wrap;rounded=0;" vertex="1" parent="1">
          <mxGeometry x="490" y="870" width="60" height="30" as="geometry" />
        </mxCell>
        <mxCell id="XYNEk0ohPdbuaJLvtM9J-180" value="M" style="text;html=1;strokeColor=none;fillColor=none;align=center;verticalAlign=middle;whiteSpace=wrap;rounded=0;" vertex="1" parent="1">
          <mxGeometry x="1010" y="640" width="60" height="30" as="geometry" />
        </mxCell>
        <mxCell id="XYNEk0ohPdbuaJLvtM9J-181" value="N" style="text;html=1;strokeColor=none;fillColor=none;align=center;verticalAlign=middle;whiteSpace=wrap;rounded=0;" vertex="1" parent="1">
          <mxGeometry x="1000" y="720" width="60" height="30" as="geometry" />
        </mxCell>
        <mxCell id="XYNEk0ohPdbuaJLvtM9J-182" value="1" style="text;html=1;strokeColor=none;fillColor=none;align=center;verticalAlign=middle;whiteSpace=wrap;rounded=0;" vertex="1" parent="1">
          <mxGeometry x="810" y="480" width="60" height="30" as="geometry" />
        </mxCell>
        <mxCell id="XYNEk0ohPdbuaJLvtM9J-183" value="1" style="text;html=1;strokeColor=none;fillColor=none;align=center;verticalAlign=middle;whiteSpace=wrap;rounded=0;" vertex="1" parent="1">
          <mxGeometry x="840" y="540" width="60" height="30" as="geometry" />
        </mxCell>
        <mxCell id="XYNEk0ohPdbuaJLvtM9J-184" value="M" style="text;html=1;strokeColor=none;fillColor=none;align=center;verticalAlign=middle;whiteSpace=wrap;rounded=0;" vertex="1" parent="1">
          <mxGeometry x="405" y="490" width="60" height="30" as="geometry" />
        </mxCell>
        <mxCell id="XYNEk0ohPdbuaJLvtM9J-185" value="N" style="text;html=1;strokeColor=none;fillColor=none;align=center;verticalAlign=middle;whiteSpace=wrap;rounded=0;" vertex="1" parent="1">
          <mxGeometry x="530" y="480" width="60" height="30" as="geometry" />
        </mxCell>
        <mxCell id="XYNEk0ohPdbuaJLvtM9J-186" value="M" style="text;html=1;strokeColor=none;fillColor=none;align=center;verticalAlign=middle;whiteSpace=wrap;rounded=0;" vertex="1" parent="1">
          <mxGeometry x="-100" y="480" width="60" height="30" as="geometry" />
        </mxCell>
        <mxCell id="XYNEk0ohPdbuaJLvtM9J-187" value="N" style="text;html=1;strokeColor=none;fillColor=none;align=center;verticalAlign=middle;whiteSpace=wrap;rounded=0;" vertex="1" parent="1">
          <mxGeometry x="-90" y="590" width="60" height="30" as="geometry" />
        </mxCell>
        <mxCell id="XYNEk0ohPdbuaJLvtM9J-188" value="N" style="text;html=1;strokeColor=none;fillColor=none;align=center;verticalAlign=middle;whiteSpace=wrap;rounded=0;" vertex="1" parent="1">
          <mxGeometry x="185" y="190" width="60" height="30" as="geometry" />
        </mxCell>
        <mxCell id="XYNEk0ohPdbuaJLvtM9J-189" value="1" style="text;html=1;strokeColor=none;fillColor=none;align=center;verticalAlign=middle;whiteSpace=wrap;rounded=0;" vertex="1" parent="1">
          <mxGeometry x="360" y="185" width="60" height="30" as="geometry" />
        </mxCell>
      </root>
    </mxGraphModel>
  </diagram>
</mxfile>
